# xmcd
#
# Track frame offsets: 
#        150
#        9685
#        21702
#        33160
#        45027
#        56260
#        71255
#        82055
#        92635
#        107985
#        117305
#        129510
#        141610
#        154287
#        168035
#        181235
#
# Disc length: 2576 seconds
#
# Revision: 4
# Processed by: cddbd v1.5.2PL0 Copyright (c) Steve Scherf et al.
# Submitted via: ExactAudioCopyFreeDBPlugin 1.0
#
DISCID=d10a0e10
DTITLE=Various Artist - Queens Of Country
DYEAR=2001
DGENRE=Country
TTITLE0=Lynn Anderson - Snowbird
TTITLE1=Billie Jo Spears - Misty Blue
TTITLE2=Sammi Smith - Help Me Make It Through The Night
TTITLE3=Skeeter Davis - End Of The World
TTITLE4=Patsy Cline - Just Out Of Reach
TTITLE5=Lynn Anderson - Desperado
TTITLE6=Donna Fargo - Wishful Thinking
TTITLE7=Dolly Parton - It Wasn't God Who Made Honky Tonk Angels
TTITLE8=Melba Montgomery - No Charge
TTITLE9=Jeannie C. Riley - The Girl Most Likely To
TTITLE10=Anne Murray - All The Time
TTITLE11=Billie Jo Spears - You Never Can Tell
TTITLE12=Lynn Anderson - Top Of The World
TTITLE13=Patsy Cline - A Church, A Courtroom And Ten Goodbye
TTITLE14=Dottie West - D.I.V.O.R.C.E.
TTITLE15=Wanda Jackson - What In The World's Come Over You
EXTD=
EXTT0=
EXTT1=
EXTT2=
EXTT3=
EXTT4=
EXTT5=
EXTT6=
EXTT7=
EXTT8=
EXTT9=
EXTT10=
EXTT11=
EXTT12=
EXTT13=
EXTT14=
EXTT15=
PLAYORDER=
